<svg xmlns="http://www.w3.org/2000/svg" width="17.009" height="17" viewBox="0 0 17.009 17">
  <g id="组_6225" data-name="组 6225" transform="translate(0.009)">
    <path id="路径_16404" data-name="路径 16404" d="M215.016,13.622V12.487h1.135a1.072,1.072,0,0,0,1.135-1.135V2.27a1.072,1.072,0,0,0-1.135-1.135H207.07a1.072,1.072,0,0,0-1.135,1.135V3.405H204.8V2.27A2.277,2.277,0,0,1,207.07,0h9.081a2.277,2.277,0,0,1,2.27,2.27v9.081a2.277,2.277,0,0,1-2.27,2.27Z" transform="translate(-201.422)" fill="#1b76ff"/>
    <path id="路径_16405" data-name="路径 16405" d="M2.27,204.8h9.081a2.277,2.277,0,0,1,2.27,2.27v9.081a2.277,2.277,0,0,1-2.27,2.27H2.27A2.277,2.277,0,0,1,0,216.152V207.07A2.277,2.277,0,0,1,2.27,204.8Zm0,1.135a1.072,1.072,0,0,0-1.135,1.135v9.081a1.072,1.072,0,0,0,1.135,1.135h9.081a1.072,1.072,0,0,0,1.135-1.135V207.07a1.072,1.072,0,0,0-1.135-1.135Z" transform="translate(-0.009 -201.422)" fill="#1b76ff"/>
    <path id="路径_16406" data-name="路径 16406" d="M205.368,477.867h5.676a.568.568,0,0,1,0,1.135h-5.676a.568.568,0,0,1,0-1.135Zm0,3.405h5.676a.568.568,0,1,1,0,1.135h-5.676a.568.568,0,1,1,0-1.135Z" transform="translate(-201.404 -469.938)" fill="#1b76ff"/>
  </g>
</svg>
