<svg xmlns="http://www.w3.org/2000/svg" width="15.127" height="16" viewBox="0 0 15.127 16">
  <path id="路径_16544" data-name="路径 16544" d="M161.528,102.4a7.957,7.957,0,0,1,4.181,1.179c.331.2.35.482.062.845q-.44.509-1.809-.192h0a6.628,6.628,0,1,0,2.183,10.924h.007a1.682,1.682,0,0,1,1.315-.838l.142.009q.752.138.4.768l0-.007,0,0v0h0l-.165.221a8,8,0,1,1-6.31-12.916Zm6.922,4.188a.693.693,0,0,1,0,.981l-5.76,5.76-.011.01-.075.075a.64.64,0,0,1-.9,0l-.038-.037-.009-.011-2.819-2.818a.64.64,0,0,1,0-.9l.075-.075a.64.64,0,0,1,.906,0l2.338,2.336,5.317-5.316a.693.693,0,0,1,.981,0Z" transform="translate(-153.527 -102.4)" fill="#1b76ff"/>
</svg>
