<svg xmlns="http://www.w3.org/2000/svg" width="10" height="9.996" viewBox="0 0 10 9.996">
  <path id="路径_1401" data-name="路径 1401" d="M135.244,146.593l4.072-4.072a.533.533,0,0,0,0-.75l-.022-.022a.533.533,0,0,0-.75,0l-4.072,4.077-4.072-4.077a.533.533,0,0,0-.75,0l-.022.022a.523.523,0,0,0,0,.75l4.072,4.072-4.072,4.072a.533.533,0,0,0,0,.75l.022.022a.533.533,0,0,0,.75,0l4.072-4.072,4.072,4.072a.533.533,0,0,0,.75,0l.022-.022a.533.533,0,0,0,0-.75Z" transform="translate(-129.47 -141.595)" fill="#999"/>
</svg>
