<svg xmlns="http://www.w3.org/2000/svg" width="13.391" height="13.4" viewBox="0 0 13.391 13.4">
  <g id="组_5577" data-name="组 5577" transform="translate(-61.8 -61.799)">
    <path id="路径_1517" data-name="路径 1517" d="M464.415,306.879l-2.522-2.428a.5.5,0,0,0-.706,0,.457.457,0,0,0,0,.68l1.664,1.6H458.01a.486.486,0,1,0,0,.971h4.841l-1.664,1.6a.457.457,0,0,0,0,.68.5.5,0,0,0,.706,0l2.521-2.476a.048.048,0,0,1,.05-.049.39.39,0,0,0-.05-.583Z" transform="translate(-389.582 -238.72)" fill="#0F59A4" stroke="#0F59A4" stroke-width="0.4"/>
    <path id="路径_1518" data-name="路径 1518" d="M73.455,72a.482.482,0,0,0-.521.5v1a.482.482,0,0,1-.521.5H63.562a.482.482,0,0,1-.521-.5v-10a.482.482,0,0,1,.521-.5h8.851a.482.482,0,0,1,.521.5v1a.521.521,0,0,0,1.041,0v-1A1.5,1.5,0,0,0,72.413,62H63.562A1.5,1.5,0,0,0,62,63.5v10A1.5,1.5,0,0,0,63.562,75h8.851a1.5,1.5,0,0,0,1.562-1.5v-1A.482.482,0,0,0,73.455,72Z" transform="translate(0 0)" fill="#0F59A4" stroke="#0F59A4" stroke-width="0.4"/>
  </g>
</svg>
