<svg xmlns="http://www.w3.org/2000/svg" xmlns:xlink="http://www.w3.org/1999/xlink" width="14.4" height="18.063" viewBox="0 0 14.4 18.063">
  <defs>
    <linearGradient id="linear-gradient" y1="0.5" x2="1" y2="0.5" gradientUnits="objectBoundingBox">
      <stop offset="0" stop-color="#75a1f8"/>
      <stop offset="1" stop-color="#1d6ce9"/>
      <stop offset="1" stop-color="#4263f6"/>
    </linearGradient>
  </defs>
  <path id="画板_98" data-name="画板 98" d="M7.2,3.779a3.224,3.224,0,0,1,3.28,3.166A3.227,3.227,0,0,1,7.2,10.112,3.224,3.224,0,0,1,3.92,6.945,3.224,3.224,0,0,1,7.2,3.779ZM14.4,6.95A7.079,7.079,0,0,0,7.2,0,7.079,7.079,0,0,0,0,6.95a6.764,6.764,0,0,0,1.17,3.8l5.385,6.93a.73.73,0,0,0,.965.311.7.7,0,0,0,.325-.311l5.395-6.93a6.851,6.851,0,0,0,1.16-3.8h0Z" fill="url(#linear-gradient)"/>
</svg>
