<svg xmlns="http://www.w3.org/2000/svg" width="18.052" height="16" viewBox="0 0 18.052 16">
  <path id="路径_16509" data-name="路径 16509" d="M42.667,86.154a.821.821,0,0,1,.821-.821H55.8a.821.821,0,1,1,0,1.641H44.308V97.642h5.334a.821.821,0,0,1,.58.241l1.472,1.47,1.472-1.47a.82.82,0,0,1,.58-.241h5.334V90.257a.821.821,0,0,1,1.641,0v8.206a.821.821,0,0,1-.821.821H54.084l-1.812,1.811a.821.821,0,0,1-1.16,0L49.3,99.283H43.487a.821.821,0,0,1-.821-.821Zm7.8,5.744a.821.821,0,0,1,.821-.821H52.1a.821.821,0,0,1,0,1.641h-.821A.821.821,0,0,1,50.462,91.9Zm4.923-.821a.821.821,0,0,0,0,1.641h.821a.821.821,0,0,0,0-1.641Zm-9.026.821a.821.821,0,0,1,.821-.821H48a.821.821,0,0,1,0,1.641H47.18A.821.821,0,0,1,46.359,91.9Zm14.36-5.334a1.231,1.231,0,1,1-1.231-1.231A1.231,1.231,0,0,1,60.719,86.564Z" transform="translate(-42.667 -85.333)" fill="#333"/>
</svg>
