<svg xmlns="http://www.w3.org/2000/svg" width="14.466" height="14.456" viewBox="0 0 14.466 14.456">
  <path id="路径_16532" data-name="路径 16532" d="M41.544,62.333l.067-.038c2.518-1.414,4.84-1.615,6.06-.5l.081.078c1.17,1.17,1.027,3.462-.333,5.97l-.132.24.038.066c1.447,2.575,1.623,4.947.427,6.142-1.169,1.17-3.462,1.028-5.97-.331l-.238-.132-.067.037c-2.576,1.445-4.948,1.622-6.142.427-1.17-1.17-1.028-3.462.331-5.97l.132-.239-.037-.067c-1.446-2.577-1.623-4.949-.427-6.143,1.169-1.17,3.462-1.027,5.973.332l.238.132Zm5.249,6.913-.1-.206-.306.42a16.507,16.507,0,0,1-3.7,3.632l-.188.134.208.1c1.9.923,3.568,1.042,4.346.264s.658-2.445-.263-4.345Zm-10.4-.207-.137.275c-.892,1.872-1,3.508-.231,4.277s2.446.659,4.347-.263l.209-.1-.19-.135a16.527,16.527,0,0,1-3.865-3.866l-.132-.187Zm5.283-5.49h-.137l-.03,0-.1.021A14.522,14.522,0,0,0,39,65.534a14.924,14.924,0,0,0-2,2.471l-.048.075.049.075a15.339,15.339,0,0,0,4.475,4.474l.075.049.074-.049A15.311,15.311,0,0,0,45.9,68.447l.245-.37L46.091,68a14.981,14.981,0,0,0-2-2.467,13.382,13.382,0,0,0-2.331-1.964l-.075-.022Zm-.26,3.267a1.435,1.435,0,1,1-1.328.886,1.438,1.438,0,0,1,1.328-.886Zm-1.044-3.987c-1.9-.921-3.569-1.04-4.346-.263s-.659,2.446.264,4.346l.1.209.134-.19a16.51,16.51,0,0,1,3.632-3.695l.421-.3-.206-.1Zm6.68-.263c-.769-.768-2.4-.662-4.279.23l-.274.138.187.132a16.578,16.578,0,0,1,3.866,3.865l.133.189.1-.209c.922-1.9,1.041-3.568.264-4.346Z" transform="translate(-34.311 -60.854)" fill="#666" stroke="#666" stroke-width="0.3"/>
</svg>
