<svg xmlns="http://www.w3.org/2000/svg" width="36" height="36" viewBox="0 0 36 36">
  <g id="组_6649" data-name="组 6649" transform="translate(-1624 -975)">
    <rect id="矩形_521" data-name="矩形 521" width="36" height="36" rx="10" transform="translate(1624 975)" fill="#efefef"/>
    <g id="组_6304" data-name="组 6304" transform="translate(1532.14 880.148)">
      <path id="路径_16517" data-name="路径 16517" d="M113.033,122.919a3.259,3.259,0,0,1-2.887-1.72l-2.86-5.175-5.683-2.535a2.942,2.942,0,0,1,.175-5.445l13.6-5.049a3.327,3.327,0,0,1,4.381,3.948l-3.471,13.47a3.266,3.266,0,0,1-2.8,2.47A3.561,3.561,0,0,1,113.033,122.919ZM102.393,109.7a1.18,1.18,0,0,0-.07,2.183l5.952,2.656a.881.881,0,0,1,.412.378l3,5.431a1.566,1.566,0,0,0,2.885-.368l3.469-13.47a1.565,1.565,0,0,0-2.061-1.857L102.392,109.7Z" transform="translate(0)" fill="#b5b5b5"/>
      <path id="路径_16518" data-name="路径 16518" d="M497.492,309.144a.907.907,0,0,1-.647-1.542l3.846-3.907a.908.908,0,0,1,1.3,1.272l-3.846,3.907A.906.906,0,0,1,497.492,309.144Z" transform="translate(-387.075 -195.758)" fill="#b5b5b5"/>
    </g>
  </g>
</svg>
