<svg xmlns="http://www.w3.org/2000/svg" xmlns:xlink="http://www.w3.org/1999/xlink" width="36" height="36" viewBox="0 0 36 36">
  <defs>
    <linearGradient id="linear-gradient" x1="0.5" x2="0.5" y2="1" gradientUnits="objectBoundingBox">
      <stop offset="0" stop-color="#479cfc"/>
      <stop offset="1" stop-color="#0b5ce7"/>
    </linearGradient>
  </defs>
  <g id="组_6650" data-name="组 6650" transform="translate(-9008 3907)">
    <rect id="矩形_521" data-name="矩形 521" width="36" height="36" rx="10" transform="translate(9008 -3907)" fill="url(#linear-gradient)"/>
    <g id="组_6304" data-name="组 6304" transform="translate(8916.14 -4001.852)">
      <path id="路径_16517" data-name="路径 16517" d="M113.033,122.919a3.259,3.259,0,0,1-2.887-1.72l-2.86-5.175-5.683-2.535a2.942,2.942,0,0,1,.175-5.445l13.6-5.049a3.327,3.327,0,0,1,4.381,3.948l-3.471,13.47a3.266,3.266,0,0,1-2.8,2.47A3.561,3.561,0,0,1,113.033,122.919ZM102.393,109.7a1.18,1.18,0,0,0-.07,2.183l5.952,2.656a.881.881,0,0,1,.412.378l3,5.431a1.566,1.566,0,0,0,2.885-.368l3.469-13.47a1.565,1.565,0,0,0-2.061-1.857L102.392,109.7Z" transform="translate(0)" fill="#fff"/>
      <path id="路径_16518" data-name="路径 16518" d="M497.492,309.144a.907.907,0,0,1-.647-1.542l3.846-3.907a.908.908,0,0,1,1.3,1.272l-3.846,3.907A.906.906,0,0,1,497.492,309.144Z" transform="translate(-387.075 -195.758)" fill="#fff"/>
    </g>
  </g>
</svg>
